# xmcd CD database file
#
# Track frame offsets:
#	150
#	16821
#	26511
#	36516
#	47464
#	64532
#	82219
#	100238
#	111023
#	131405
#	147066
#	160821
#	171809
#	188220
#	201861
#	222551
#
# Disc length: 3187 seconds
#
# Revision: 0
# Processed by: cddbd v1.5.1PL0 Copyright (c) Steve Scherf et al.
# Submitted via: CDex 1.51
#
DISCID=db0c7110
DTITLE=Kristian Blak - Shalder Geo
DYEAR=1997
DGENRE=Jazz
TTITLE0=Trows
TTITLE1=Da Smugglers
TTITLE2=Da New Rigged Ship
TTITLE3=Sum Ein Onnur Terna
TTITLE4=Udi Ringsted
TTITLE5=Du Hojlyksalig Est
TTITLE6=Trana Tryta
TTITLE7=Mill O´gutcher
TTITLE8=Nannie An´ Bettie
TTITLE9=Shalder Geo
TTITLE10=Lad Os I Freden Leve
TTITLE11=Nattina Eftir Friggjanatt
TTITLE12=Led Er Din Sang
TTITLE13=Stout´s Trip To Skea
TTITLE14=Da Full Rigged Ship
TTITLE15=Da Wheena Burn
EXTD=YEAR: 1997
EXTT0=
EXTT1=
EXTT2=
EXTT3=
EXTT4=
EXTT5=
EXTT6=
EXTT7=
EXTT8=
EXTT9=
EXTT10=
EXTT11=
EXTT12=
EXTT13=
EXTT14=
EXTT15=
PLAYORDER=
